<svg xmlns="http://www.w3.org/2000/svg" width="118" height="43" viewBox="0 0 118 43"><g fill="#6D276A"><path d="M56.725 20.168H45.85c.707-2.498 2.868-4.102 5.326-4.102 2.83 0 4.766 1.417 5.55 4.102M45.7 23.864h16.013c0-.336.037-.672.037-1.01 0-2.65-.56-4.774-1.9-6.563-2.084-2.853-5.21-4.484-8.675-4.484-2.756 0-5.4 1.186-7.448 3.334-1.863 1.973-2.83 4.468-2.83 7.27 0 2.685 1.08 5.405 2.978 7.37 2.01 2.074 4.544 3.112 7.486 3.112 4.42 0 7.957-2.483 9.67-6.867h-5.027c-.967 1.602-2.716 2.494-4.762 2.494-3.156 0-5.24-1.79-5.54-4.656M69.032 22.496c0-3.425 2.5-5.99 5.742-5.99 3.243 0 5.815 2.715 5.815 5.916 0 3.314-2.498 5.88-6.04 5.88-2.982 0-5.518-2.49-5.518-5.806m-.186-8.494V5.94h-4.583V32.39h4.583v-1.615c1.865 1.444 3.878 2.108 6.226 2.108 2.535 0 4.81-.812 6.562-2.33 2.42-2.067 3.76-5.006 3.76-8.207 0-2.94-1.19-5.77-3.388-7.782-1.863-1.75-4.287-2.646-6.896-2.646-2.508-.006-4.478.594-6.264 2.082"/><path d="M88.595 12.414h4.483v19.98h-4.483v-19.98zm0-6.475h4.483v4.425h-4.483V5.94zM100.785 22.228c0-3.233 2.602-5.722 5.69-5.722 2.938 0 5.615 2.6 5.615 5.945 0 3.086-2.64 5.687-5.54 5.687-3.124 0-5.765-2.452-5.765-5.91m11.882 10.166h4.443v-19.98h-4.482v2.4c-1.355-1.93-3.438-2.893-6.34-2.893-3.012 0-5.39.964-7.4 3.07-1.858 1.923-2.863 4.525-2.863 7.31 0 5.947 4.425 10.53 10.375 10.53 3.087 0 5.095-.895 6.21-2.905l.057 2.468z"/></g><path fill="#6D276A" d="M.093 41.132h12.28l13.15-13.15 13.15 13.15h12.282L31.665 21.85l19.44-19.444h-12.28l-13.302 13.3-13.302-13.3H-.06L19.383 21.85z"/></svg>